<mxfile host="app.diagrams.net" modified="2023-08-11T03:19:14.332Z" agent="Mozilla/5.0 (Windows NT 10.0; Win64; x64) AppleWebKit/537.36 (KHTML, like Gecko) Chrome/115.0.0.0 Safari/537.36" etag="CiFKm_iizsCzvQEWO57M" version="21.6.8" type="device">
  <diagram name="Page-1" id="mdmDnUNN7zUBK22BMwez">
    <mxGraphModel dx="1709" dy="937" grid="1" gridSize="10" guides="1" tooltips="1" connect="1" arrows="1" fold="1" page="1" pageScale="1" pageWidth="850" pageHeight="1100" math="0" shadow="1">
      <root>
        <mxCell id="0" />
        <mxCell id="1" parent="0" />
        <mxCell id="AR6ehh2gXDxMe-jYQI8W-18" value="" style="rounded=1;whiteSpace=wrap;html=1;fillColor=#f5f5f5;strokeColor=#666666;strokeWidth=2;shadow=0;fontFamily=Comic Sans MS;dashed=1;fontColor=#333333;" parent="1" vertex="1">
          <mxGeometry x="439.25" y="662" width="400" height="130" as="geometry" />
        </mxCell>
        <mxCell id="AR6ehh2gXDxMe-jYQI8W-24" value="" style="rounded=1;whiteSpace=wrap;html=1;fillColor=none;strokeWidth=6;strokeColor=#FF0000;dashed=1;perimeterSpacing=2;dashPattern=1 1;" parent="1" vertex="1">
          <mxGeometry x="80" y="733" width="260" height="67" as="geometry" />
        </mxCell>
        <mxCell id="emGGRLrwtW1_4OUkdVJX-96" value="" style="rounded=1;whiteSpace=wrap;html=1;fillColor=#fad9d5;strokeColor=#ae4132;strokeWidth=2;shadow=0;fontFamily=Comic Sans MS;dashed=1;" parent="1" vertex="1">
          <mxGeometry x="220" y="290" width="190" height="430" as="geometry" />
        </mxCell>
        <mxCell id="AR6ehh2gXDxMe-jYQI8W-4" value="" style="rounded=1;whiteSpace=wrap;html=1;fillColor=none;strokeWidth=6;strokeColor=#FF0000;dashed=1;dashPattern=1 1;" parent="1" vertex="1">
          <mxGeometry x="265" y="675" width="150" height="50" as="geometry" />
        </mxCell>
        <mxCell id="AR6ehh2gXDxMe-jYQI8W-6" value="" style="rounded=1;whiteSpace=wrap;html=1;fillColor=none;strokeWidth=6;strokeColor=#FF0000;dashed=1;dashPattern=1 1;" parent="1" vertex="1">
          <mxGeometry x="237" y="192" width="133" height="37" as="geometry" />
        </mxCell>
        <mxCell id="emGGRLrwtW1_4OUkdVJX-97" value="&lt;font color=&quot;#ff0000&quot; size=&quot;1&quot;&gt;&lt;b style=&quot;font-size: 16px;&quot;&gt;Decoder&lt;/b&gt;&lt;/font&gt;" style="text;html=1;strokeColor=none;fillColor=none;align=center;verticalAlign=middle;whiteSpace=wrap;rounded=0;shadow=0;fontFamily=Comic Sans MS;" parent="1" vertex="1">
          <mxGeometry x="310" y="287" width="60" height="30" as="geometry" />
        </mxCell>
        <mxCell id="emGGRLrwtW1_4OUkdVJX-94" value="" style="rounded=1;whiteSpace=wrap;html=1;strokeWidth=2;fillColor=#d5e8d4;strokeColor=#82b366;shadow=0;fontFamily=Comic Sans MS;dashed=1;" parent="1" vertex="1">
          <mxGeometry x="10" y="390" width="200" height="330" as="geometry" />
        </mxCell>
        <mxCell id="emGGRLrwtW1_4OUkdVJX-1" value="" style="endArrow=none;html=1;rounded=0;strokeWidth=4;dashed=1;shadow=0;fontFamily=Comic Sans MS;" parent="1" edge="1">
          <mxGeometry width="50" height="50" relative="1" as="geometry">
            <mxPoint x="424" y="920" as="sourcePoint" />
            <mxPoint x="424" y="10" as="targetPoint" />
          </mxGeometry>
        </mxCell>
        <mxCell id="AR6ehh2gXDxMe-jYQI8W-3" value="" style="rounded=1;whiteSpace=wrap;html=1;fillColor=none;strokeWidth=6;strokeColor=#FF0000;dashed=1;perimeterSpacing=2;dashPattern=1 1;" parent="1" vertex="1">
          <mxGeometry x="10" y="675" width="150" height="50" as="geometry" />
        </mxCell>
        <mxCell id="emGGRLrwtW1_4OUkdVJX-2" value="&lt;b style=&quot;&quot;&gt;&lt;font style=&quot;font-size: 24px;&quot;&gt;&lt;u&gt;Standard Transformer-based Encoder-Decoder&lt;br&gt;for Natural Language&lt;/u&gt;&lt;br&gt;&lt;/font&gt;&lt;/b&gt;" style="text;html=1;strokeColor=none;fillColor=none;align=center;verticalAlign=middle;whiteSpace=wrap;rounded=0;shadow=0;fontFamily=Comic Sans MS;" parent="1" vertex="1">
          <mxGeometry x="50" y="20" width="320" height="90" as="geometry" />
        </mxCell>
        <mxCell id="emGGRLrwtW1_4OUkdVJX-3" value="&lt;font style=&quot;font-size: 24px;&quot;&gt;&lt;font style=&quot;font-size: 24px;&quot;&gt;&lt;u&gt;&lt;b&gt;Our Implementation of&amp;nbsp;&lt;span style=&quot;border-color: var(--border-color); font-size: 12px;&quot;&gt;&lt;span style=&quot;border-color: var(--border-color);&quot;&gt;&lt;font style=&quot;border-color: var(--border-color); font-size: 24px;&quot;&gt;Transformer-based&lt;br style=&quot;border-color: var(--border-color);&quot;&gt;&lt;/font&gt;&lt;/span&gt;&lt;/span&gt;Model for Stars&lt;/b&gt;&lt;/u&gt;&lt;font style=&quot;&quot; face=&quot;Helvetica&quot;&gt;⭐&lt;/font&gt;&lt;/font&gt;&lt;/font&gt;" style="text;html=1;strokeColor=none;fillColor=none;align=center;verticalAlign=middle;whiteSpace=wrap;rounded=0;shadow=0;fontFamily=Comic Sans MS;" parent="1" vertex="1">
          <mxGeometry x="465" y="5" width="350" height="120" as="geometry" />
        </mxCell>
        <mxCell id="emGGRLrwtW1_4OUkdVJX-6" value="" style="rounded=1;whiteSpace=wrap;html=1;fillColor=#eeeeee;strokeColor=#36393d;strokeWidth=2;shadow=0;fontFamily=Comic Sans MS;" parent="1" vertex="1">
          <mxGeometry x="230" y="320" width="140" height="350" as="geometry" />
        </mxCell>
        <mxCell id="AR6ehh2gXDxMe-jYQI8W-5" value="" style="rounded=1;whiteSpace=wrap;html=1;fillColor=none;strokeWidth=6;strokeColor=#FF0000;dashed=1;dashPattern=1 1;" parent="1" vertex="1">
          <mxGeometry x="237" y="542" width="143" height="98" as="geometry" />
        </mxCell>
        <mxCell id="emGGRLrwtW1_4OUkdVJX-7" value="" style="rounded=1;whiteSpace=wrap;html=1;fillColor=#eeeeee;strokeColor=#36393d;strokeWidth=2;shadow=0;fontFamily=Comic Sans MS;" parent="1" vertex="1">
          <mxGeometry x="60" y="440" width="140" height="230" as="geometry" />
        </mxCell>
        <mxCell id="emGGRLrwtW1_4OUkdVJX-21" style="edgeStyle=orthogonalEdgeStyle;rounded=0;orthogonalLoop=1;jettySize=auto;html=1;exitX=0.5;exitY=0;exitDx=0;exitDy=0;entryX=0.5;entryY=1;entryDx=0;entryDy=0;entryPerimeter=0;strokeWidth=2;shadow=0;fontFamily=Comic Sans MS;" parent="1" target="emGGRLrwtW1_4OUkdVJX-15" edge="1">
          <mxGeometry relative="1" as="geometry">
            <mxPoint x="140" y="740" as="sourcePoint" />
          </mxGeometry>
        </mxCell>
        <mxCell id="emGGRLrwtW1_4OUkdVJX-18" style="edgeStyle=orthogonalEdgeStyle;rounded=0;orthogonalLoop=1;jettySize=auto;html=1;exitX=0.5;exitY=0;exitDx=0;exitDy=0;entryX=0.5;entryY=1;entryDx=0;entryDy=0;entryPerimeter=0;strokeWidth=2;shadow=0;fontFamily=Comic Sans MS;" parent="1" target="emGGRLrwtW1_4OUkdVJX-16" edge="1">
          <mxGeometry relative="1" as="geometry">
            <mxPoint x="290" y="740" as="sourcePoint" />
          </mxGeometry>
        </mxCell>
        <mxCell id="emGGRLrwtW1_4OUkdVJX-14" value="" style="edgeStyle=orthogonalEdgeStyle;rounded=0;orthogonalLoop=1;jettySize=auto;html=1;strokeWidth=2;shadow=0;fontFamily=Comic Sans MS;endArrow=none;endFill=0;" parent="1" edge="1">
          <mxGeometry relative="1" as="geometry">
            <mxPoint x="140" y="820" as="sourcePoint" />
            <mxPoint x="140" y="790" as="targetPoint" />
          </mxGeometry>
        </mxCell>
        <mxCell id="emGGRLrwtW1_4OUkdVJX-13" value="" style="edgeStyle=orthogonalEdgeStyle;rounded=0;orthogonalLoop=1;jettySize=auto;html=1;strokeWidth=2;shadow=0;fontFamily=Comic Sans MS;endArrow=none;endFill=0;" parent="1" edge="1">
          <mxGeometry relative="1" as="geometry">
            <mxPoint x="290" y="820" as="sourcePoint" />
            <mxPoint x="290" y="790" as="targetPoint" />
          </mxGeometry>
        </mxCell>
        <mxCell id="emGGRLrwtW1_4OUkdVJX-53" style="edgeStyle=orthogonalEdgeStyle;rounded=0;orthogonalLoop=1;jettySize=auto;html=1;exitX=0.5;exitY=0;exitDx=0;exitDy=0;exitPerimeter=0;entryX=0.497;entryY=1.018;entryDx=0;entryDy=0;strokeWidth=2;entryPerimeter=0;shadow=0;fontFamily=Comic Sans MS;" parent="1" source="emGGRLrwtW1_4OUkdVJX-15" target="emGGRLrwtW1_4OUkdVJX-41" edge="1">
          <mxGeometry relative="1" as="geometry">
            <Array as="points">
              <mxPoint x="140" y="650" />
              <mxPoint x="140" y="650" />
            </Array>
          </mxGeometry>
        </mxCell>
        <mxCell id="emGGRLrwtW1_4OUkdVJX-15" value="" style="verticalLabelPosition=bottom;verticalAlign=top;html=1;shape=mxgraph.flowchart.summing_function;shadow=0;fontFamily=Comic Sans MS;" parent="1" vertex="1">
          <mxGeometry x="135" y="690" width="10" height="10" as="geometry" />
        </mxCell>
        <mxCell id="emGGRLrwtW1_4OUkdVJX-57" style="edgeStyle=orthogonalEdgeStyle;rounded=0;orthogonalLoop=1;jettySize=auto;html=1;exitX=0.5;exitY=0;exitDx=0;exitDy=0;exitPerimeter=0;entryX=0.5;entryY=1;entryDx=0;entryDy=0;strokeWidth=2;shadow=0;fontFamily=Comic Sans MS;" parent="1" source="emGGRLrwtW1_4OUkdVJX-16" target="emGGRLrwtW1_4OUkdVJX-42" edge="1">
          <mxGeometry relative="1" as="geometry" />
        </mxCell>
        <mxCell id="emGGRLrwtW1_4OUkdVJX-16" value="" style="verticalLabelPosition=bottom;verticalAlign=top;html=1;shape=mxgraph.flowchart.summing_function;shadow=0;fontFamily=Comic Sans MS;" parent="1" vertex="1">
          <mxGeometry x="285" y="690" width="10" height="10" as="geometry" />
        </mxCell>
        <mxCell id="emGGRLrwtW1_4OUkdVJX-37" style="edgeStyle=orthogonalEdgeStyle;rounded=0;orthogonalLoop=1;jettySize=auto;html=1;exitX=1;exitY=0.5;exitDx=0;exitDy=0;entryX=0;entryY=0.5;entryDx=0;entryDy=0;entryPerimeter=0;endArrow=none;endFill=0;strokeWidth=2;shadow=0;fontFamily=Comic Sans MS;" parent="1" source="emGGRLrwtW1_4OUkdVJX-30" target="emGGRLrwtW1_4OUkdVJX-15" edge="1">
          <mxGeometry relative="1" as="geometry" />
        </mxCell>
        <mxCell id="emGGRLrwtW1_4OUkdVJX-30" value="" style="ellipse;whiteSpace=wrap;html=1;aspect=fixed;rotation=0;shadow=0;fontFamily=Comic Sans MS;" parent="1" vertex="1">
          <mxGeometry x="90" y="682.5" width="25" height="25" as="geometry" />
        </mxCell>
        <mxCell id="emGGRLrwtW1_4OUkdVJX-33" style="edgeStyle=orthogonalEdgeStyle;rounded=0;orthogonalLoop=1;jettySize=auto;html=1;exitX=0;exitY=0.5;exitDx=0;exitDy=0;entryX=1;entryY=0.5;entryDx=0;entryDy=0;endArrow=none;endFill=0;curved=1;shadow=0;fontFamily=Comic Sans MS;" parent="1" source="emGGRLrwtW1_4OUkdVJX-30" target="emGGRLrwtW1_4OUkdVJX-30" edge="1">
          <mxGeometry relative="1" as="geometry">
            <Array as="points">
              <mxPoint x="90" y="687.5" />
              <mxPoint x="103" y="687.5" />
              <mxPoint x="103" y="702.5" />
              <mxPoint x="115" y="702.5" />
            </Array>
          </mxGeometry>
        </mxCell>
        <mxCell id="emGGRLrwtW1_4OUkdVJX-38" style="edgeStyle=orthogonalEdgeStyle;rounded=0;orthogonalLoop=1;jettySize=auto;html=1;exitX=0;exitY=0.5;exitDx=0;exitDy=0;entryX=1;entryY=0.5;entryDx=0;entryDy=0;entryPerimeter=0;endArrow=none;endFill=0;shadow=0;fontFamily=Comic Sans MS;strokeWidth=2;" parent="1" source="emGGRLrwtW1_4OUkdVJX-35" target="emGGRLrwtW1_4OUkdVJX-16" edge="1">
          <mxGeometry relative="1" as="geometry" />
        </mxCell>
        <mxCell id="emGGRLrwtW1_4OUkdVJX-35" value="" style="ellipse;whiteSpace=wrap;html=1;aspect=fixed;rotation=0;shadow=0;fontFamily=Comic Sans MS;" parent="1" vertex="1">
          <mxGeometry x="310" y="682.5" width="25" height="25" as="geometry" />
        </mxCell>
        <mxCell id="emGGRLrwtW1_4OUkdVJX-36" style="edgeStyle=orthogonalEdgeStyle;rounded=0;orthogonalLoop=1;jettySize=auto;html=1;exitX=0;exitY=0.5;exitDx=0;exitDy=0;entryX=1;entryY=0.5;entryDx=0;entryDy=0;endArrow=none;endFill=0;curved=1;shadow=0;fontFamily=Comic Sans MS;" parent="1" source="emGGRLrwtW1_4OUkdVJX-35" target="emGGRLrwtW1_4OUkdVJX-35" edge="1">
          <mxGeometry relative="1" as="geometry">
            <Array as="points">
              <mxPoint x="310" y="687.5" />
              <mxPoint x="323" y="687.5" />
              <mxPoint x="323" y="702.5" />
              <mxPoint x="335" y="702.5" />
            </Array>
          </mxGeometry>
        </mxCell>
        <mxCell id="emGGRLrwtW1_4OUkdVJX-39" value="&lt;font style=&quot;font-size: 14px;&quot;&gt;Positional&lt;br&gt;Encoding&lt;br&gt;&lt;/font&gt;" style="text;html=1;strokeColor=none;fillColor=none;align=center;verticalAlign=middle;whiteSpace=wrap;rounded=0;shadow=0;fontFamily=Comic Sans MS;" parent="1" vertex="1">
          <mxGeometry x="20" y="680" width="60" height="30" as="geometry" />
        </mxCell>
        <mxCell id="emGGRLrwtW1_4OUkdVJX-40" value="&lt;font style=&quot;font-size: 14px;&quot;&gt;Positional&lt;br&gt;Encoding&lt;br&gt;&lt;/font&gt;" style="text;html=1;strokeColor=none;fillColor=none;align=center;verticalAlign=middle;whiteSpace=wrap;rounded=0;shadow=0;fontFamily=Comic Sans MS;" parent="1" vertex="1">
          <mxGeometry x="340" y="680" width="60" height="30" as="geometry" />
        </mxCell>
        <mxCell id="emGGRLrwtW1_4OUkdVJX-55" style="edgeStyle=orthogonalEdgeStyle;rounded=0;orthogonalLoop=1;jettySize=auto;html=1;exitX=0.5;exitY=0;exitDx=0;exitDy=0;entryX=0.5;entryY=1;entryDx=0;entryDy=0;strokeWidth=2;shadow=0;fontFamily=Comic Sans MS;" parent="1" source="emGGRLrwtW1_4OUkdVJX-41" target="emGGRLrwtW1_4OUkdVJX-46" edge="1">
          <mxGeometry relative="1" as="geometry" />
        </mxCell>
        <mxCell id="emGGRLrwtW1_4OUkdVJX-73" style="edgeStyle=elbowEdgeStyle;rounded=1;orthogonalLoop=1;jettySize=auto;html=1;exitX=0.25;exitY=1;exitDx=0;exitDy=0;elbow=vertical;entryX=0.25;entryY=1.02;entryDx=0;entryDy=0;strokeWidth=2;entryPerimeter=0;shadow=0;fontFamily=Comic Sans MS;" parent="1" target="emGGRLrwtW1_4OUkdVJX-41" edge="1">
          <mxGeometry relative="1" as="geometry">
            <mxPoint x="140" y="650" as="sourcePoint" />
            <Array as="points">
              <mxPoint x="130" y="650" />
            </Array>
          </mxGeometry>
        </mxCell>
        <mxCell id="emGGRLrwtW1_4OUkdVJX-41" value="&lt;font style=&quot;font-size: 14px;&quot;&gt;Multi-Head&lt;br&gt;Attention&lt;/font&gt;" style="rounded=1;whiteSpace=wrap;html=1;fillColor=#ffe6cc;strokeColor=#d79b00;strokeWidth=2;shadow=0;fontFamily=Comic Sans MS;" parent="1" vertex="1">
          <mxGeometry x="95" y="580" width="90" height="50" as="geometry" />
        </mxCell>
        <mxCell id="emGGRLrwtW1_4OUkdVJX-59" style="edgeStyle=orthogonalEdgeStyle;rounded=1;orthogonalLoop=1;jettySize=auto;html=1;exitX=0.5;exitY=0;exitDx=0;exitDy=0;entryX=0.75;entryY=1;entryDx=0;entryDy=0;strokeWidth=2;shadow=0;fontFamily=Comic Sans MS;" parent="1" source="emGGRLrwtW1_4OUkdVJX-42" target="emGGRLrwtW1_4OUkdVJX-48" edge="1">
          <mxGeometry relative="1" as="geometry">
            <Array as="points">
              <mxPoint x="290" y="530" />
              <mxPoint x="313" y="530" />
            </Array>
          </mxGeometry>
        </mxCell>
        <mxCell id="emGGRLrwtW1_4OUkdVJX-80" style="edgeStyle=elbowEdgeStyle;rounded=1;orthogonalLoop=1;jettySize=auto;html=1;exitX=0.75;exitY=1;exitDx=0;exitDy=0;elbow=vertical;strokeWidth=2;entryX=0.75;entryY=1;entryDx=0;entryDy=0;shadow=0;fontFamily=Comic Sans MS;" parent="1" target="emGGRLrwtW1_4OUkdVJX-42" edge="1">
          <mxGeometry relative="1" as="geometry">
            <mxPoint x="290" y="650" as="sourcePoint" />
            <Array as="points">
              <mxPoint x="300" y="650" />
            </Array>
          </mxGeometry>
        </mxCell>
        <mxCell id="emGGRLrwtW1_4OUkdVJX-81" style="edgeStyle=elbowEdgeStyle;rounded=1;orthogonalLoop=1;jettySize=auto;html=1;exitX=0.25;exitY=1;exitDx=0;exitDy=0;elbow=vertical;entryX=0.25;entryY=1;entryDx=0;entryDy=0;strokeWidth=2;shadow=0;fontFamily=Comic Sans MS;" parent="1" target="emGGRLrwtW1_4OUkdVJX-42" edge="1">
          <mxGeometry relative="1" as="geometry">
            <mxPoint x="290" y="650" as="sourcePoint" />
            <Array as="points">
              <mxPoint x="280" y="650" />
            </Array>
          </mxGeometry>
        </mxCell>
        <mxCell id="emGGRLrwtW1_4OUkdVJX-42" value="&lt;font style=&quot;font-size: 14px;&quot;&gt;Masked&lt;br&gt;Multi-Head&lt;br&gt;Attention&lt;/font&gt;" style="rounded=1;whiteSpace=wrap;html=1;fillColor=#ffe6cc;strokeColor=#d79b00;strokeWidth=2;shadow=0;fontFamily=Comic Sans MS;" parent="1" vertex="1">
          <mxGeometry x="245" y="580" width="90" height="50" as="geometry" />
        </mxCell>
        <mxCell id="emGGRLrwtW1_4OUkdVJX-43" value="&lt;font style=&quot;font-size: 14px;&quot;&gt;Add &amp;amp; Norm&lt;/font&gt;" style="rounded=1;whiteSpace=wrap;html=1;fillColor=#fff2cc;strokeColor=#d6b656;strokeWidth=2;shadow=0;fontFamily=Comic Sans MS;" parent="1" vertex="1">
          <mxGeometry x="95" y="550" width="90" height="20" as="geometry" />
        </mxCell>
        <mxCell id="emGGRLrwtW1_4OUkdVJX-82" style="edgeStyle=elbowEdgeStyle;rounded=1;orthogonalLoop=1;jettySize=auto;html=1;exitX=1;exitY=0.5;exitDx=0;exitDy=0;strokeWidth=2;entryX=1;entryY=0.5;entryDx=0;entryDy=0;shadow=0;fontFamily=Comic Sans MS;" parent="1" target="emGGRLrwtW1_4OUkdVJX-44" edge="1">
          <mxGeometry relative="1" as="geometry">
            <mxPoint x="290" y="660" as="sourcePoint" />
            <Array as="points">
              <mxPoint x="360" y="610" />
            </Array>
          </mxGeometry>
        </mxCell>
        <mxCell id="emGGRLrwtW1_4OUkdVJX-44" value="&lt;font style=&quot;font-size: 14px;&quot;&gt;Add &amp;amp; Norm&lt;/font&gt;" style="rounded=1;whiteSpace=wrap;html=1;fillColor=#fff2cc;strokeColor=#d6b656;strokeWidth=2;shadow=0;fontFamily=Comic Sans MS;" parent="1" vertex="1">
          <mxGeometry x="245" y="550" width="90" height="20" as="geometry" />
        </mxCell>
        <mxCell id="emGGRLrwtW1_4OUkdVJX-63" style="edgeStyle=orthogonalEdgeStyle;rounded=1;orthogonalLoop=1;jettySize=auto;html=1;exitX=0.5;exitY=0;exitDx=0;exitDy=0;entryX=0.25;entryY=1;entryDx=0;entryDy=0;strokeWidth=2;shadow=0;fontFamily=Comic Sans MS;" parent="1" source="emGGRLrwtW1_4OUkdVJX-46" target="emGGRLrwtW1_4OUkdVJX-48" edge="1">
          <mxGeometry relative="1" as="geometry">
            <Array as="points">
              <mxPoint x="140" y="370" />
              <mxPoint x="215" y="370" />
              <mxPoint x="215" y="530" />
              <mxPoint x="267" y="530" />
            </Array>
          </mxGeometry>
        </mxCell>
        <mxCell id="emGGRLrwtW1_4OUkdVJX-64" style="edgeStyle=orthogonalEdgeStyle;rounded=1;orthogonalLoop=1;jettySize=auto;html=1;exitX=0.5;exitY=0;exitDx=0;exitDy=0;entryX=0.5;entryY=1;entryDx=0;entryDy=0;strokeWidth=2;shadow=0;fontFamily=Comic Sans MS;" parent="1" source="emGGRLrwtW1_4OUkdVJX-46" target="emGGRLrwtW1_4OUkdVJX-48" edge="1">
          <mxGeometry relative="1" as="geometry">
            <Array as="points">
              <mxPoint x="140" y="370" />
              <mxPoint x="215" y="370" />
              <mxPoint x="215" y="530" />
              <mxPoint x="290" y="530" />
            </Array>
          </mxGeometry>
        </mxCell>
        <mxCell id="emGGRLrwtW1_4OUkdVJX-46" value="&lt;font style=&quot;font-size: 14px;&quot;&gt;Feed &lt;br&gt;Forward&lt;/font&gt;" style="rounded=1;whiteSpace=wrap;html=1;fillColor=#b1ddf0;strokeColor=#10739e;strokeWidth=2;shadow=0;fontFamily=Comic Sans MS;" parent="1" vertex="1">
          <mxGeometry x="95" y="480" width="90" height="40" as="geometry" />
        </mxCell>
        <mxCell id="emGGRLrwtW1_4OUkdVJX-66" style="edgeStyle=orthogonalEdgeStyle;rounded=1;orthogonalLoop=1;jettySize=auto;html=1;exitX=0;exitY=0.5;exitDx=0;exitDy=0;strokeWidth=2;entryX=0;entryY=0.5;entryDx=0;entryDy=0;shadow=0;fontFamily=Comic Sans MS;" parent="1" target="emGGRLrwtW1_4OUkdVJX-47" edge="1">
          <mxGeometry relative="1" as="geometry">
            <mxPoint x="140" y="540" as="sourcePoint" />
            <Array as="points">
              <mxPoint x="70" y="540" />
              <mxPoint x="70" y="460" />
            </Array>
          </mxGeometry>
        </mxCell>
        <mxCell id="emGGRLrwtW1_4OUkdVJX-47" value="&lt;font style=&quot;font-size: 14px;&quot;&gt;Add &amp;amp; Norm&lt;/font&gt;" style="rounded=1;whiteSpace=wrap;html=1;fillColor=#fff2cc;strokeColor=#d6b656;strokeWidth=2;shadow=0;fontFamily=Comic Sans MS;" parent="1" vertex="1">
          <mxGeometry x="95" y="450" width="90" height="20" as="geometry" />
        </mxCell>
        <mxCell id="emGGRLrwtW1_4OUkdVJX-84" style="edgeStyle=orthogonalEdgeStyle;rounded=0;orthogonalLoop=1;jettySize=auto;html=1;exitX=0.5;exitY=0;exitDx=0;exitDy=0;entryX=0.5;entryY=1;entryDx=0;entryDy=0;strokeWidth=2;shadow=0;fontFamily=Comic Sans MS;" parent="1" source="emGGRLrwtW1_4OUkdVJX-48" target="emGGRLrwtW1_4OUkdVJX-76" edge="1">
          <mxGeometry relative="1" as="geometry" />
        </mxCell>
        <mxCell id="emGGRLrwtW1_4OUkdVJX-48" value="&lt;font style=&quot;font-size: 14px;&quot;&gt;Multi-Head&lt;br&gt;Attention&lt;/font&gt;" style="rounded=1;whiteSpace=wrap;html=1;fillColor=#ffe6cc;strokeColor=#d79b00;strokeWidth=2;shadow=0;fontFamily=Comic Sans MS;" parent="1" vertex="1">
          <mxGeometry x="245" y="460" width="90" height="50" as="geometry" />
        </mxCell>
        <mxCell id="emGGRLrwtW1_4OUkdVJX-83" style="edgeStyle=elbowEdgeStyle;rounded=1;orthogonalLoop=1;jettySize=auto;html=1;exitX=1;exitY=0.5;exitDx=0;exitDy=0;entryX=1;entryY=0.5;entryDx=0;entryDy=0;strokeWidth=2;shadow=0;fontFamily=Comic Sans MS;" parent="1" target="emGGRLrwtW1_4OUkdVJX-49" edge="1">
          <mxGeometry relative="1" as="geometry">
            <mxPoint x="290" y="540" as="sourcePoint" />
            <Array as="points">
              <mxPoint x="360" y="490" />
            </Array>
          </mxGeometry>
        </mxCell>
        <mxCell id="emGGRLrwtW1_4OUkdVJX-49" value="&lt;font style=&quot;font-size: 14px;&quot;&gt;Add &amp;amp; Norm&lt;/font&gt;" style="rounded=1;whiteSpace=wrap;html=1;fillColor=#fff2cc;strokeColor=#d6b656;strokeWidth=2;shadow=0;fontFamily=Comic Sans MS;" parent="1" vertex="1">
          <mxGeometry x="245" y="430" width="90" height="20" as="geometry" />
        </mxCell>
        <mxCell id="emGGRLrwtW1_4OUkdVJX-56" value="" style="endArrow=classic;html=1;rounded=1;entryX=0;entryY=0.5;entryDx=0;entryDy=0;strokeWidth=2;shadow=0;edgeStyle=orthogonalEdgeStyle;jumpStyle=none;fontFamily=Comic Sans MS;" parent="1" target="emGGRLrwtW1_4OUkdVJX-43" edge="1">
          <mxGeometry width="50" height="50" relative="1" as="geometry">
            <mxPoint x="140" y="660" as="sourcePoint" />
            <mxPoint x="270" y="580" as="targetPoint" />
            <Array as="points">
              <mxPoint x="70" y="660" />
              <mxPoint x="70" y="560" />
            </Array>
          </mxGeometry>
        </mxCell>
        <mxCell id="emGGRLrwtW1_4OUkdVJX-60" value="&lt;font style=&quot;font-size: 14px;&quot;&gt;Multi-Head&lt;br&gt;Attention&lt;/font&gt;" style="rounded=1;whiteSpace=wrap;html=1;fillColor=#ffe6cc;strokeColor=#d79b00;strokeWidth=2;shadow=0;fontFamily=Comic Sans MS;" parent="1" vertex="1">
          <mxGeometry x="453.75" y="180" width="115" height="50" as="geometry" />
        </mxCell>
        <mxCell id="emGGRLrwtW1_4OUkdVJX-62" value="&lt;u&gt;&lt;font style=&quot;font-size: 16px;&quot;&gt;Definition:&lt;/font&gt;&lt;/u&gt;" style="text;html=1;strokeColor=none;fillColor=none;align=center;verticalAlign=middle;whiteSpace=wrap;rounded=0;shadow=0;fontFamily=Comic Sans MS;" parent="1" vertex="1">
          <mxGeometry x="435" y="150" width="152.5" height="30" as="geometry" />
        </mxCell>
        <mxCell id="emGGRLrwtW1_4OUkdVJX-72" style="edgeStyle=elbowEdgeStyle;rounded=1;orthogonalLoop=1;jettySize=auto;html=1;exitX=0.75;exitY=1;exitDx=0;exitDy=0;elbow=vertical;strokeWidth=2;entryX=0.757;entryY=1.026;entryDx=0;entryDy=0;entryPerimeter=0;shadow=0;fontFamily=Comic Sans MS;" parent="1" target="emGGRLrwtW1_4OUkdVJX-41" edge="1">
          <mxGeometry relative="1" as="geometry">
            <mxPoint x="163" y="630" as="targetPoint" />
            <mxPoint x="140" y="650" as="sourcePoint" />
            <Array as="points">
              <mxPoint x="150" y="650" />
            </Array>
          </mxGeometry>
        </mxCell>
        <mxCell id="emGGRLrwtW1_4OUkdVJX-74" value="&lt;font style=&quot;&quot;&gt;&lt;b style=&quot;&quot;&gt;&lt;font style=&quot;font-size: 16px;&quot;&gt;N×&lt;/font&gt;&lt;/b&gt;&lt;br&gt;&lt;/font&gt;" style="text;html=1;strokeColor=none;fillColor=none;align=center;verticalAlign=middle;whiteSpace=wrap;rounded=0;shadow=0;fontFamily=Comic Sans MS;" parent="1" vertex="1">
          <mxGeometry x="10" y="540" width="60" height="30" as="geometry" />
        </mxCell>
        <mxCell id="emGGRLrwtW1_4OUkdVJX-75" value="&lt;font style=&quot;&quot;&gt;&lt;b style=&quot;&quot;&gt;&lt;font style=&quot;font-size: 16px;&quot;&gt;N×&lt;/font&gt;&lt;/b&gt;&lt;br&gt;&lt;/font&gt;" style="text;html=1;strokeColor=none;fillColor=none;align=center;verticalAlign=middle;whiteSpace=wrap;rounded=0;shadow=0;fontFamily=Comic Sans MS;" parent="1" vertex="1">
          <mxGeometry x="360" y="460" width="60" height="30" as="geometry" />
        </mxCell>
        <mxCell id="emGGRLrwtW1_4OUkdVJX-76" value="&lt;font style=&quot;font-size: 14px;&quot;&gt;Feed &lt;br&gt;Forward&lt;/font&gt;" style="rounded=1;whiteSpace=wrap;html=1;fillColor=#b1ddf0;strokeColor=#10739e;strokeWidth=2;shadow=0;fontFamily=Comic Sans MS;" parent="1" vertex="1">
          <mxGeometry x="245" y="360" width="90" height="40" as="geometry" />
        </mxCell>
        <mxCell id="emGGRLrwtW1_4OUkdVJX-85" style="edgeStyle=elbowEdgeStyle;rounded=1;orthogonalLoop=1;jettySize=auto;html=1;strokeWidth=2;entryX=1;entryY=0.5;entryDx=0;entryDy=0;shadow=0;fontFamily=Comic Sans MS;" parent="1" target="emGGRLrwtW1_4OUkdVJX-77" edge="1">
          <mxGeometry relative="1" as="geometry">
            <mxPoint x="290" y="420" as="sourcePoint" />
            <Array as="points">
              <mxPoint x="360" y="380" />
              <mxPoint x="350" y="390" />
            </Array>
          </mxGeometry>
        </mxCell>
        <mxCell id="AR6ehh2gXDxMe-jYQI8W-11" value="" style="edgeStyle=orthogonalEdgeStyle;rounded=0;orthogonalLoop=1;jettySize=auto;html=1;strokeWidth=2;" parent="1" source="emGGRLrwtW1_4OUkdVJX-77" target="AR6ehh2gXDxMe-jYQI8W-10" edge="1">
          <mxGeometry relative="1" as="geometry" />
        </mxCell>
        <mxCell id="emGGRLrwtW1_4OUkdVJX-77" value="&lt;font style=&quot;font-size: 14px;&quot;&gt;Add &amp;amp; Norm&lt;/font&gt;" style="rounded=1;whiteSpace=wrap;html=1;fillColor=#fff2cc;strokeColor=#d6b656;strokeWidth=2;shadow=0;fontFamily=Comic Sans MS;" parent="1" vertex="1">
          <mxGeometry x="245" y="330" width="90" height="20" as="geometry" />
        </mxCell>
        <mxCell id="emGGRLrwtW1_4OUkdVJX-93" style="edgeStyle=orthogonalEdgeStyle;rounded=0;orthogonalLoop=1;jettySize=auto;html=1;exitX=0.5;exitY=0;exitDx=0;exitDy=0;entryX=0.5;entryY=1;entryDx=0;entryDy=0;strokeWidth=2;shadow=0;fontFamily=Comic Sans MS;" parent="1" source="emGGRLrwtW1_4OUkdVJX-87" edge="1">
          <mxGeometry relative="1" as="geometry">
            <mxPoint x="290" y="180" as="targetPoint" />
          </mxGeometry>
        </mxCell>
        <mxCell id="emGGRLrwtW1_4OUkdVJX-87" value="&lt;font style=&quot;font-size: 14px;&quot;&gt;Softmax&lt;/font&gt;" style="rounded=1;whiteSpace=wrap;html=1;fillColor=#d0cee2;strokeColor=#56517e;strokeWidth=2;shadow=0;fontFamily=Comic Sans MS;" parent="1" vertex="1">
          <mxGeometry x="245" y="198" width="90" height="20" as="geometry" />
        </mxCell>
        <mxCell id="emGGRLrwtW1_4OUkdVJX-95" value="&lt;font color=&quot;#00994d&quot; size=&quot;1&quot;&gt;&lt;b style=&quot;font-size: 16px;&quot;&gt;Encoder&lt;/b&gt;&lt;/font&gt;" style="text;html=1;strokeColor=none;fillColor=none;align=center;verticalAlign=middle;whiteSpace=wrap;rounded=0;shadow=0;fontFamily=Comic Sans MS;" parent="1" vertex="1">
          <mxGeometry x="70" y="390" width="60" height="30" as="geometry" />
        </mxCell>
        <mxCell id="emGGRLrwtW1_4OUkdVJX-98" value="" style="rounded=1;whiteSpace=wrap;html=1;fillColor=#fad9d5;strokeColor=#ae4132;strokeWidth=2;shadow=0;fontFamily=Comic Sans MS;dashed=1;" parent="1" vertex="1">
          <mxGeometry x="650" y="370" width="190" height="285" as="geometry" />
        </mxCell>
        <mxCell id="emGGRLrwtW1_4OUkdVJX-99" value="&lt;font color=&quot;#ff0000&quot; size=&quot;1&quot;&gt;&lt;b style=&quot;font-size: 16px;&quot;&gt;Decoder&lt;/b&gt;&lt;/font&gt;" style="text;html=1;strokeColor=none;fillColor=none;align=center;verticalAlign=middle;whiteSpace=wrap;rounded=0;shadow=0;fontFamily=Comic Sans MS;" parent="1" vertex="1">
          <mxGeometry x="740" y="370" width="60" height="30" as="geometry" />
        </mxCell>
        <mxCell id="emGGRLrwtW1_4OUkdVJX-100" value="" style="rounded=1;whiteSpace=wrap;html=1;fillColor=#d5e8d4;strokeColor=#82b366;strokeWidth=2;shadow=0;fontFamily=Comic Sans MS;dashed=1;" parent="1" vertex="1">
          <mxGeometry x="440" y="370" width="200" height="285" as="geometry" />
        </mxCell>
        <mxCell id="emGGRLrwtW1_4OUkdVJX-101" value="" style="rounded=1;whiteSpace=wrap;html=1;fillColor=#eeeeee;strokeColor=#36393d;strokeWidth=2;shadow=0;fontFamily=Comic Sans MS;" parent="1" vertex="1">
          <mxGeometry x="660" y="405" width="140" height="230" as="geometry" />
        </mxCell>
        <mxCell id="emGGRLrwtW1_4OUkdVJX-102" value="" style="rounded=1;whiteSpace=wrap;html=1;fillColor=#eeeeee;strokeColor=#36393d;strokeWidth=2;shadow=0;fontFamily=Comic Sans MS;" parent="1" vertex="1">
          <mxGeometry x="490" y="405" width="140" height="230" as="geometry" />
        </mxCell>
        <mxCell id="emGGRLrwtW1_4OUkdVJX-123" style="edgeStyle=orthogonalEdgeStyle;rounded=0;orthogonalLoop=1;jettySize=auto;html=1;exitX=0.5;exitY=0;exitDx=0;exitDy=0;entryX=0.5;entryY=1;entryDx=0;entryDy=0;strokeWidth=2;shadow=0;fontFamily=Comic Sans MS;" parent="1" source="emGGRLrwtW1_4OUkdVJX-125" target="emGGRLrwtW1_4OUkdVJX-135" edge="1">
          <mxGeometry relative="1" as="geometry" />
        </mxCell>
        <mxCell id="emGGRLrwtW1_4OUkdVJX-124" style="edgeStyle=elbowEdgeStyle;rounded=1;orthogonalLoop=1;jettySize=auto;html=1;exitX=0.25;exitY=1;exitDx=0;exitDy=0;elbow=vertical;entryX=0.25;entryY=1.02;entryDx=0;entryDy=0;strokeWidth=2;entryPerimeter=0;shadow=0;fontFamily=Comic Sans MS;" parent="1" target="emGGRLrwtW1_4OUkdVJX-125" edge="1">
          <mxGeometry relative="1" as="geometry">
            <mxPoint x="570" y="615" as="sourcePoint" />
            <Array as="points">
              <mxPoint x="560" y="615" />
            </Array>
          </mxGeometry>
        </mxCell>
        <mxCell id="AR6ehh2gXDxMe-jYQI8W-23" style="edgeStyle=orthogonalEdgeStyle;rounded=0;orthogonalLoop=1;jettySize=auto;html=1;exitX=0.618;exitY=-0.019;exitDx=0;exitDy=0;entryX=0.5;entryY=1;entryDx=0;entryDy=0;strokeWidth=2;exitPerimeter=0;" parent="1" source="iJdwoECjG4qIQXeY6DNX-10" target="emGGRLrwtW1_4OUkdVJX-125" edge="1">
          <mxGeometry relative="1" as="geometry" />
        </mxCell>
        <mxCell id="emGGRLrwtW1_4OUkdVJX-125" value="&lt;font style=&quot;font-size: 14px;&quot;&gt;Multi-Head&lt;br&gt;Attention&lt;/font&gt;" style="rounded=1;whiteSpace=wrap;html=1;fillColor=#ffe6cc;strokeColor=#d79b00;strokeWidth=2;shadow=0;fontFamily=Comic Sans MS;" parent="1" vertex="1">
          <mxGeometry x="525" y="545" width="90" height="50" as="geometry" />
        </mxCell>
        <mxCell id="emGGRLrwtW1_4OUkdVJX-126" style="edgeStyle=orthogonalEdgeStyle;rounded=1;orthogonalLoop=1;jettySize=auto;html=1;exitX=0.857;exitY=0;exitDx=0;exitDy=0;entryX=0.75;entryY=1;entryDx=0;entryDy=0;strokeWidth=2;shadow=0;fontFamily=Comic Sans MS;exitPerimeter=0;" parent="1" source="iJdwoECjG4qIQXeY6DNX-9" target="emGGRLrwtW1_4OUkdVJX-139" edge="1">
          <mxGeometry relative="1" as="geometry">
            <Array as="points">
              <mxPoint x="719" y="615" />
              <mxPoint x="743" y="615" />
            </Array>
            <mxPoint x="719.75" y="720" as="sourcePoint" />
          </mxGeometry>
        </mxCell>
        <mxCell id="emGGRLrwtW1_4OUkdVJX-130" value="&lt;font style=&quot;font-size: 14px;&quot;&gt;Add &amp;amp; Norm&lt;/font&gt;" style="rounded=1;whiteSpace=wrap;html=1;fillColor=#fff2cc;strokeColor=#d6b656;strokeWidth=2;shadow=0;fontFamily=Comic Sans MS;" parent="1" vertex="1">
          <mxGeometry x="525" y="515" width="90" height="20" as="geometry" />
        </mxCell>
        <mxCell id="emGGRLrwtW1_4OUkdVJX-133" style="edgeStyle=orthogonalEdgeStyle;rounded=1;orthogonalLoop=1;jettySize=auto;html=1;exitX=0.5;exitY=0;exitDx=0;exitDy=0;entryX=0.25;entryY=1;entryDx=0;entryDy=0;strokeWidth=2;shadow=0;fontFamily=Comic Sans MS;" parent="1" target="emGGRLrwtW1_4OUkdVJX-139" edge="1">
          <mxGeometry relative="1" as="geometry">
            <Array as="points">
              <mxPoint x="570" y="350" />
              <mxPoint x="645" y="350" />
              <mxPoint x="645" y="615" />
              <mxPoint x="698" y="615" />
            </Array>
            <mxPoint x="570" y="345" as="sourcePoint" />
          </mxGeometry>
        </mxCell>
        <mxCell id="emGGRLrwtW1_4OUkdVJX-134" style="edgeStyle=orthogonalEdgeStyle;rounded=1;orthogonalLoop=1;jettySize=auto;html=1;exitX=0.5;exitY=0;exitDx=0;exitDy=0;entryX=0.5;entryY=1;entryDx=0;entryDy=0;strokeWidth=2;shadow=0;fontFamily=Comic Sans MS;" parent="1" source="emGGRLrwtW1_4OUkdVJX-135" target="emGGRLrwtW1_4OUkdVJX-139" edge="1">
          <mxGeometry relative="1" as="geometry">
            <Array as="points">
              <mxPoint x="570" y="350" />
              <mxPoint x="645" y="350" />
              <mxPoint x="645" y="615" />
              <mxPoint x="720" y="615" />
            </Array>
            <mxPoint x="570" y="345" as="sourcePoint" />
          </mxGeometry>
        </mxCell>
        <mxCell id="emGGRLrwtW1_4OUkdVJX-135" value="&lt;font style=&quot;font-size: 14px;&quot;&gt;Feed &lt;br&gt;Forward&lt;/font&gt;" style="rounded=1;whiteSpace=wrap;html=1;fillColor=#b1ddf0;strokeColor=#10739e;strokeWidth=2;shadow=0;fontFamily=Comic Sans MS;" parent="1" vertex="1">
          <mxGeometry x="525" y="445" width="90" height="40" as="geometry" />
        </mxCell>
        <mxCell id="emGGRLrwtW1_4OUkdVJX-136" style="edgeStyle=orthogonalEdgeStyle;rounded=1;orthogonalLoop=1;jettySize=auto;html=1;exitX=0;exitY=0.5;exitDx=0;exitDy=0;strokeWidth=2;entryX=0;entryY=0.5;entryDx=0;entryDy=0;shadow=0;fontFamily=Comic Sans MS;" parent="1" target="emGGRLrwtW1_4OUkdVJX-137" edge="1">
          <mxGeometry relative="1" as="geometry">
            <mxPoint x="570" y="505" as="sourcePoint" />
            <Array as="points">
              <mxPoint x="500" y="505" />
              <mxPoint x="500" y="425" />
            </Array>
          </mxGeometry>
        </mxCell>
        <mxCell id="emGGRLrwtW1_4OUkdVJX-137" value="&lt;font style=&quot;font-size: 14px;&quot;&gt;Add &amp;amp; Norm&lt;/font&gt;" style="rounded=1;whiteSpace=wrap;html=1;fillColor=#fff2cc;strokeColor=#d6b656;strokeWidth=2;shadow=0;fontFamily=Comic Sans MS;" parent="1" vertex="1">
          <mxGeometry x="525" y="415" width="90" height="20" as="geometry" />
        </mxCell>
        <mxCell id="emGGRLrwtW1_4OUkdVJX-138" style="edgeStyle=orthogonalEdgeStyle;rounded=0;orthogonalLoop=1;jettySize=auto;html=1;exitX=0.5;exitY=0;exitDx=0;exitDy=0;entryX=0.5;entryY=1;entryDx=0;entryDy=0;strokeWidth=2;shadow=0;fontFamily=Comic Sans MS;" parent="1" source="emGGRLrwtW1_4OUkdVJX-139" target="emGGRLrwtW1_4OUkdVJX-146" edge="1">
          <mxGeometry relative="1" as="geometry" />
        </mxCell>
        <mxCell id="emGGRLrwtW1_4OUkdVJX-139" value="&lt;font style=&quot;font-size: 14px;&quot;&gt;Multi-Head&lt;br&gt;Attention&lt;/font&gt;" style="rounded=1;whiteSpace=wrap;html=1;fillColor=#ffe6cc;strokeColor=#d79b00;strokeWidth=2;shadow=0;fontFamily=Comic Sans MS;" parent="1" vertex="1">
          <mxGeometry x="675" y="545" width="90" height="50" as="geometry" />
        </mxCell>
        <mxCell id="emGGRLrwtW1_4OUkdVJX-140" style="edgeStyle=elbowEdgeStyle;rounded=1;orthogonalLoop=1;jettySize=auto;html=1;exitX=1;exitY=0.5;exitDx=0;exitDy=0;entryX=1;entryY=0.5;entryDx=0;entryDy=0;strokeWidth=2;shadow=0;fontFamily=Comic Sans MS;" parent="1" target="emGGRLrwtW1_4OUkdVJX-141" edge="1">
          <mxGeometry relative="1" as="geometry">
            <mxPoint x="720" y="625" as="sourcePoint" />
            <Array as="points">
              <mxPoint x="790" y="580" />
            </Array>
          </mxGeometry>
        </mxCell>
        <mxCell id="emGGRLrwtW1_4OUkdVJX-141" value="&lt;font style=&quot;font-size: 14px;&quot;&gt;Add &amp;amp; Norm&lt;/font&gt;" style="rounded=1;whiteSpace=wrap;html=1;fillColor=#fff2cc;strokeColor=#d6b656;strokeWidth=2;shadow=0;fontFamily=Comic Sans MS;" parent="1" vertex="1">
          <mxGeometry x="675" y="515" width="90" height="20" as="geometry" />
        </mxCell>
        <mxCell id="emGGRLrwtW1_4OUkdVJX-142" value="" style="endArrow=classic;html=1;rounded=1;entryX=0;entryY=0.5;entryDx=0;entryDy=0;strokeWidth=2;shadow=0;edgeStyle=orthogonalEdgeStyle;jumpStyle=none;fontFamily=Comic Sans MS;" parent="1" target="emGGRLrwtW1_4OUkdVJX-130" edge="1">
          <mxGeometry width="50" height="50" relative="1" as="geometry">
            <mxPoint x="570" y="625" as="sourcePoint" />
            <mxPoint x="700" y="545" as="targetPoint" />
            <Array as="points">
              <mxPoint x="500" y="625" />
              <mxPoint x="500" y="525" />
            </Array>
          </mxGeometry>
        </mxCell>
        <mxCell id="emGGRLrwtW1_4OUkdVJX-143" style="edgeStyle=elbowEdgeStyle;rounded=1;orthogonalLoop=1;jettySize=auto;html=1;exitX=0.75;exitY=1;exitDx=0;exitDy=0;elbow=vertical;strokeWidth=2;entryX=0.757;entryY=1.026;entryDx=0;entryDy=0;entryPerimeter=0;shadow=0;fontFamily=Comic Sans MS;" parent="1" target="emGGRLrwtW1_4OUkdVJX-125" edge="1">
          <mxGeometry relative="1" as="geometry">
            <mxPoint x="593" y="595" as="targetPoint" />
            <mxPoint x="570" y="615" as="sourcePoint" />
            <Array as="points">
              <mxPoint x="580" y="615" />
            </Array>
          </mxGeometry>
        </mxCell>
        <mxCell id="emGGRLrwtW1_4OUkdVJX-144" value="&lt;font style=&quot;&quot;&gt;&lt;font style=&quot;font-size: 16px;&quot;&gt;&lt;b&gt;2×&lt;/b&gt;&lt;/font&gt;&lt;br&gt;&lt;/font&gt;" style="text;html=1;strokeColor=none;fillColor=none;align=center;verticalAlign=middle;whiteSpace=wrap;rounded=0;shadow=0;fontFamily=Comic Sans MS;" parent="1" vertex="1">
          <mxGeometry x="440" y="505" width="60" height="30" as="geometry" />
        </mxCell>
        <mxCell id="emGGRLrwtW1_4OUkdVJX-145" value="&lt;font style=&quot;&quot;&gt;&lt;b style=&quot;&quot;&gt;&lt;font style=&quot;font-size: 16px;&quot;&gt;3×&lt;/font&gt;&lt;/b&gt;&lt;br&gt;&lt;/font&gt;" style="text;html=1;strokeColor=none;fillColor=none;align=center;verticalAlign=middle;whiteSpace=wrap;rounded=0;shadow=0;fontFamily=Comic Sans MS;" parent="1" vertex="1">
          <mxGeometry x="790" y="485" width="60" height="30" as="geometry" />
        </mxCell>
        <mxCell id="emGGRLrwtW1_4OUkdVJX-168" style="edgeStyle=orthogonalEdgeStyle;rounded=0;orthogonalLoop=1;jettySize=auto;html=1;exitX=0.5;exitY=0;exitDx=0;exitDy=0;entryX=0.5;entryY=1;entryDx=0;entryDy=0;strokeWidth=2;fontFamily=Comic Sans MS;" parent="1" source="emGGRLrwtW1_4OUkdVJX-146" target="emGGRLrwtW1_4OUkdVJX-167" edge="1">
          <mxGeometry relative="1" as="geometry" />
        </mxCell>
        <mxCell id="emGGRLrwtW1_4OUkdVJX-146" value="&lt;font style=&quot;font-size: 14px;&quot;&gt;Feed &lt;br&gt;Forward&lt;/font&gt;" style="rounded=1;whiteSpace=wrap;html=1;fillColor=#b1ddf0;strokeColor=#10739e;strokeWidth=2;shadow=0;fontFamily=Comic Sans MS;" parent="1" vertex="1">
          <mxGeometry x="675" y="445" width="90" height="40" as="geometry" />
        </mxCell>
        <mxCell id="emGGRLrwtW1_4OUkdVJX-147" style="edgeStyle=elbowEdgeStyle;rounded=1;orthogonalLoop=1;jettySize=auto;html=1;strokeWidth=2;entryX=1;entryY=0.5;entryDx=0;entryDy=0;shadow=0;fontFamily=Comic Sans MS;" parent="1" target="emGGRLrwtW1_4OUkdVJX-149" edge="1">
          <mxGeometry relative="1" as="geometry">
            <mxPoint x="720" y="505" as="sourcePoint" />
            <Array as="points">
              <mxPoint x="790" y="460" />
              <mxPoint x="780" y="475" />
            </Array>
          </mxGeometry>
        </mxCell>
        <mxCell id="emGGRLrwtW1_4OUkdVJX-149" value="&lt;font style=&quot;font-size: 14px;&quot;&gt;Add &amp;amp; Norm&lt;/font&gt;" style="rounded=1;whiteSpace=wrap;html=1;fillColor=#fff2cc;strokeColor=#d6b656;strokeWidth=2;shadow=0;fontFamily=Comic Sans MS;" parent="1" vertex="1">
          <mxGeometry x="675" y="415" width="90" height="20" as="geometry" />
        </mxCell>
        <mxCell id="bh7ysS1SKq8o-F8AT7_F-4" style="edgeStyle=orthogonalEdgeStyle;rounded=1;orthogonalLoop=1;jettySize=auto;html=1;exitX=0.5;exitY=0;exitDx=0;exitDy=0;entryX=0.5;entryY=1;entryDx=0;entryDy=0;strokeWidth=2;" parent="1" source="emGGRLrwtW1_4OUkdVJX-151" target="iJdwoECjG4qIQXeY6DNX-12" edge="1">
          <mxGeometry relative="1" as="geometry">
            <Array as="points">
              <mxPoint x="720" y="260" />
              <mxPoint x="660" y="260" />
            </Array>
          </mxGeometry>
        </mxCell>
        <mxCell id="bh7ysS1SKq8o-F8AT7_F-5" style="edgeStyle=orthogonalEdgeStyle;rounded=1;orthogonalLoop=1;jettySize=auto;html=1;exitX=0.5;exitY=0;exitDx=0;exitDy=0;entryX=0.5;entryY=1;entryDx=0;entryDy=0;strokeWidth=2;" parent="1" source="emGGRLrwtW1_4OUkdVJX-151" target="bh7ysS1SKq8o-F8AT7_F-1" edge="1">
          <mxGeometry relative="1" as="geometry">
            <Array as="points">
              <mxPoint x="720" y="260" />
              <mxPoint x="780" y="260" />
            </Array>
          </mxGeometry>
        </mxCell>
        <mxCell id="emGGRLrwtW1_4OUkdVJX-151" value="&lt;font style=&quot;font-size: 14px;&quot;&gt;Linear&lt;/font&gt;" style="rounded=1;whiteSpace=wrap;html=1;fillColor=#d0cee2;strokeColor=#56517e;strokeWidth=2;shadow=0;fontFamily=Comic Sans MS;" parent="1" vertex="1">
          <mxGeometry x="675" y="277" width="90" height="20" as="geometry" />
        </mxCell>
        <mxCell id="emGGRLrwtW1_4OUkdVJX-155" value="&lt;font color=&quot;#00994d&quot; size=&quot;1&quot;&gt;&lt;b style=&quot;font-size: 16px;&quot;&gt;Encoder&lt;/b&gt;&lt;/font&gt;" style="text;html=1;strokeColor=none;fillColor=none;align=center;verticalAlign=middle;whiteSpace=wrap;rounded=0;shadow=0;fontFamily=Comic Sans MS;" parent="1" vertex="1">
          <mxGeometry x="500" y="370" width="60" height="30" as="geometry" />
        </mxCell>
        <mxCell id="emGGRLrwtW1_4OUkdVJX-159" style="edgeStyle=orthogonalEdgeStyle;rounded=0;orthogonalLoop=1;jettySize=auto;html=1;exitX=0.5;exitY=0;exitDx=0;exitDy=0;entryX=0.25;entryY=1;entryDx=0;entryDy=0;strokeWidth=2;fontFamily=Comic Sans MS;" parent="1" source="emGGRLrwtW1_4OUkdVJX-156" target="emGGRLrwtW1_4OUkdVJX-60" edge="1">
          <mxGeometry relative="1" as="geometry" />
        </mxCell>
        <mxCell id="emGGRLrwtW1_4OUkdVJX-156" value="&lt;font style=&quot;font-size: 14px;&quot;&gt;Value&lt;/font&gt;" style="text;html=1;strokeColor=none;fillColor=none;align=center;verticalAlign=middle;whiteSpace=wrap;rounded=0;shadow=0;fontFamily=Comic Sans MS;" parent="1" vertex="1">
          <mxGeometry x="439.25" y="250" width="60" height="30" as="geometry" />
        </mxCell>
        <mxCell id="emGGRLrwtW1_4OUkdVJX-160" style="edgeStyle=orthogonalEdgeStyle;rounded=0;orthogonalLoop=1;jettySize=auto;html=1;exitX=0.5;exitY=0;exitDx=0;exitDy=0;entryX=0.5;entryY=1;entryDx=0;entryDy=0;strokeWidth=2;fontFamily=Comic Sans MS;" parent="1" source="emGGRLrwtW1_4OUkdVJX-157" target="emGGRLrwtW1_4OUkdVJX-60" edge="1">
          <mxGeometry relative="1" as="geometry" />
        </mxCell>
        <mxCell id="emGGRLrwtW1_4OUkdVJX-157" value="&lt;font style=&quot;font-size: 14px;&quot;&gt;Key&lt;/font&gt;" style="text;html=1;strokeColor=none;fillColor=none;align=center;verticalAlign=middle;whiteSpace=wrap;rounded=0;shadow=0;fontFamily=Comic Sans MS;" parent="1" vertex="1">
          <mxGeometry x="481.25" y="250" width="60" height="30" as="geometry" />
        </mxCell>
        <mxCell id="emGGRLrwtW1_4OUkdVJX-162" style="edgeStyle=orthogonalEdgeStyle;rounded=0;orthogonalLoop=1;jettySize=auto;html=1;exitX=0.5;exitY=0;exitDx=0;exitDy=0;entryX=0.75;entryY=1;entryDx=0;entryDy=0;strokeWidth=2;fontFamily=Comic Sans MS;" parent="1" source="emGGRLrwtW1_4OUkdVJX-158" target="emGGRLrwtW1_4OUkdVJX-60" edge="1">
          <mxGeometry relative="1" as="geometry" />
        </mxCell>
        <mxCell id="emGGRLrwtW1_4OUkdVJX-158" value="&lt;font style=&quot;font-size: 14px;&quot;&gt;Query&lt;/font&gt;" style="text;html=1;strokeColor=none;fillColor=none;align=center;verticalAlign=middle;whiteSpace=wrap;rounded=0;shadow=0;fontFamily=Comic Sans MS;" parent="1" vertex="1">
          <mxGeometry x="522.25" y="250" width="60" height="30" as="geometry" />
        </mxCell>
        <mxCell id="emGGRLrwtW1_4OUkdVJX-170" style="edgeStyle=orthogonalEdgeStyle;rounded=0;orthogonalLoop=1;jettySize=auto;html=1;exitX=0.5;exitY=0;exitDx=0;exitDy=0;entryX=0.5;entryY=1;entryDx=0;entryDy=0;strokeWidth=2;fontFamily=Comic Sans MS;" parent="1" source="emGGRLrwtW1_4OUkdVJX-167" target="emGGRLrwtW1_4OUkdVJX-151" edge="1">
          <mxGeometry relative="1" as="geometry" />
        </mxCell>
        <mxCell id="emGGRLrwtW1_4OUkdVJX-167" value="&lt;font style=&quot;font-size: 14px;&quot;&gt;Feed Forwards&lt;/font&gt;" style="rounded=1;whiteSpace=wrap;html=1;fillColor=#b1ddf0;strokeColor=#10739e;strokeWidth=2;shadow=0;fontFamily=Comic Sans MS;" parent="1" vertex="1">
          <mxGeometry x="675" y="317" width="90" height="40" as="geometry" />
        </mxCell>
        <mxCell id="emGGRLrwtW1_4OUkdVJX-175" value="&lt;font style=&quot;font-size: 16px;&quot;&gt;Sentence&lt;br&gt;Context&lt;/font&gt;" style="ellipse;shape=cloud;whiteSpace=wrap;html=1;fillColor=#f9f7ed;strokeColor=#36393d;strokeWidth=2;fontFamily=Comic Sans MS;" parent="1" vertex="1">
          <mxGeometry x="45" y="300" width="140" height="85" as="geometry" />
        </mxCell>
        <mxCell id="emGGRLrwtW1_4OUkdVJX-178" value="&lt;font style=&quot;font-size: 16px;&quot;&gt;Star⭐&lt;br&gt;Context&lt;br&gt;&lt;/font&gt;" style="ellipse;shape=cloud;whiteSpace=wrap;html=1;fillColor=#f9f7ed;strokeColor=#36393d;strokeWidth=2;fontFamily=Comic Sans MS;" parent="1" vertex="1">
          <mxGeometry x="475" y="280" width="140" height="85" as="geometry" />
        </mxCell>
        <mxCell id="GQjv0LC0Rl9IuLkwbXBP-3" value="&lt;font face=&quot;Comic Sans MS&quot;&gt;&lt;b&gt;Attention Is All You Need &lt;br&gt;&lt;/b&gt;Vaswani et al. (2017)&lt;/font&gt;" style="text;html=1;strokeColor=none;fillColor=none;align=center;verticalAlign=middle;whiteSpace=wrap;rounded=0;" parent="1" vertex="1">
          <mxGeometry x="109.69" y="880" width="200" height="30" as="geometry" />
        </mxCell>
        <mxCell id="GQjv0LC0Rl9IuLkwbXBP-4" value="&lt;font face=&quot;Comic Sans MS&quot;&gt;&lt;b&gt;Towards an Astronomical Foundation Model for Stars&lt;br&gt;&lt;/b&gt;Henry W. Leung &amp;amp; Jo Bovy (2023; This work)&lt;/font&gt;" style="text;html=1;strokeColor=none;fillColor=none;align=center;verticalAlign=middle;whiteSpace=wrap;rounded=0;" parent="1" vertex="1">
          <mxGeometry x="433.75" y="880" width="412.5" height="30" as="geometry" />
        </mxCell>
        <mxCell id="iJdwoECjG4qIQXeY6DNX-1" value="&lt;font color=&quot;#990099&quot; style=&quot;font-size: 14px;&quot;&gt;Inputs&lt;br&gt;&lt;/font&gt;" style="rounded=1;whiteSpace=wrap;html=1;fillColor=#e1d5e7;strokeColor=#9673a6;strokeWidth=2;shadow=0;fontFamily=Comic Sans MS;" parent="1" vertex="1">
          <mxGeometry x="80" y="815" width="120" height="50" as="geometry" />
        </mxCell>
        <mxCell id="iJdwoECjG4qIQXeY6DNX-2" value="&lt;font color=&quot;#990099&quot; style=&quot;font-size: 14px;&quot;&gt;Outputs&lt;br&gt;(shifted right)&lt;/font&gt;" style="rounded=1;whiteSpace=wrap;html=1;fillColor=#e1d5e7;strokeColor=#9673a6;strokeWidth=2;shadow=0;fontFamily=Comic Sans MS;" parent="1" vertex="1">
          <mxGeometry x="220" y="815" width="120" height="50" as="geometry" />
        </mxCell>
        <mxCell id="iJdwoECjG4qIQXeY6DNX-3" value="&lt;font style=&quot;font-size: 14px;&quot; face=&quot;Comic Sans MS&quot;&gt;Word Embedding&lt;/font&gt;" style="shape=parallelogram;perimeter=parallelogramPerimeter;whiteSpace=wrap;html=1;fixedSize=1;strokeWidth=2;fillColor=#f9f7ed;strokeColor=#36393d;" parent="1" vertex="1">
          <mxGeometry x="99.38" y="740" width="220.62" height="50" as="geometry" />
        </mxCell>
        <mxCell id="iJdwoECjG4qIQXeY6DNX-5" value="&lt;font color=&quot;#990099&quot; style=&quot;font-size: 14px;&quot;&gt;Output&lt;br&gt;probabilities&lt;br&gt;&lt;/font&gt;" style="rounded=1;whiteSpace=wrap;html=1;fillColor=#e1d5e7;strokeColor=#9673a6;strokeWidth=2;shadow=0;fontFamily=Comic Sans MS;" parent="1" vertex="1">
          <mxGeometry x="230" y="130" width="120" height="50" as="geometry" />
        </mxCell>
        <mxCell id="AR6ehh2gXDxMe-jYQI8W-22" style="edgeStyle=orthogonalEdgeStyle;rounded=1;orthogonalLoop=1;jettySize=auto;html=1;exitX=0.5;exitY=0;exitDx=0;exitDy=0;entryX=1;entryY=0.5;entryDx=0;entryDy=0;strokeWidth=2;" parent="1" source="iJdwoECjG4qIQXeY6DNX-6" target="iJdwoECjG4qIQXeY6DNX-10" edge="1">
          <mxGeometry relative="1" as="geometry">
            <Array as="points">
              <mxPoint x="637" y="762" />
              <mxPoint x="637" y="695" />
            </Array>
          </mxGeometry>
        </mxCell>
        <mxCell id="iJdwoECjG4qIQXeY6DNX-6" value="&lt;font color=&quot;#990099&quot;&gt;&lt;span style=&quot;font-size: 14px;&quot;&gt;List of name of observations from a star&lt;/span&gt;&lt;/font&gt;" style="rounded=1;whiteSpace=wrap;html=1;fillColor=#e1d5e7;strokeColor=#9673a6;strokeWidth=2;shadow=0;fontFamily=Comic Sans MS;" parent="1" vertex="1">
          <mxGeometry x="577.5" y="805" width="120" height="60" as="geometry" />
        </mxCell>
        <mxCell id="AR6ehh2gXDxMe-jYQI8W-20" style="edgeStyle=orthogonalEdgeStyle;rounded=0;orthogonalLoop=1;jettySize=auto;html=1;exitX=0.5;exitY=0;exitDx=0;exitDy=0;entryX=0.153;entryY=1.014;entryDx=0;entryDy=0;entryPerimeter=0;strokeWidth=2;" parent="1" source="iJdwoECjG4qIQXeY6DNX-7" target="iJdwoECjG4qIQXeY6DNX-10" edge="1">
          <mxGeometry relative="1" as="geometry" />
        </mxCell>
        <mxCell id="iJdwoECjG4qIQXeY6DNX-7" value="&lt;font style=&quot;font-size: 14px;&quot; color=&quot;#990099&quot;&gt;Corresponding values of &lt;br&gt;the list&lt;/font&gt;" style="rounded=1;whiteSpace=wrap;html=1;fillColor=#e1d5e7;strokeColor=#9673a6;strokeWidth=2;shadow=0;fontFamily=Comic Sans MS;" parent="1" vertex="1">
          <mxGeometry x="440" y="805" width="120" height="60" as="geometry" />
        </mxCell>
        <mxCell id="iJdwoECjG4qIQXeY6DNX-18" style="edgeStyle=orthogonalEdgeStyle;rounded=1;orthogonalLoop=1;jettySize=auto;html=1;exitX=0.5;exitY=0;exitDx=0;exitDy=0;entryX=0.867;entryY=0.979;entryDx=0;entryDy=0;entryPerimeter=0;strokeWidth=2;endArrow=none;endFill=0;" parent="1" source="iJdwoECjG4qIQXeY6DNX-8" target="iJdwoECjG4qIQXeY6DNX-9" edge="1">
          <mxGeometry relative="1" as="geometry">
            <Array as="points">
              <mxPoint x="780" y="800" />
              <mxPoint x="721" y="800" />
            </Array>
          </mxGeometry>
        </mxCell>
        <mxCell id="iJdwoECjG4qIQXeY6DNX-8" value="&lt;font style=&quot;font-size: 14px;&quot; color=&quot;#990099&quot;&gt;Request for information from human&lt;/font&gt;" style="rounded=1;whiteSpace=wrap;html=1;fillColor=#e1d5e7;strokeColor=#9673a6;strokeWidth=2;shadow=0;fontFamily=Comic Sans MS;" parent="1" vertex="1">
          <mxGeometry x="720" y="805" width="120" height="60" as="geometry" />
        </mxCell>
        <mxCell id="iJdwoECjG4qIQXeY6DNX-9" value="&lt;font style=&quot;font-size: 14px;&quot; face=&quot;Comic Sans MS&quot;&gt;Observation / Request&lt;br&gt;Embedding&lt;/font&gt;" style="shape=parallelogram;perimeter=parallelogramPerimeter;whiteSpace=wrap;html=1;fixedSize=1;fillColor=#f9f7ed;strokeColor=#36393d;strokeWidth=2;" parent="1" vertex="1">
          <mxGeometry x="530.0000000000001" y="728" width="220.62" height="50" as="geometry" />
        </mxCell>
        <mxCell id="iJdwoECjG4qIQXeY6DNX-10" value="&lt;font style=&quot;font-size: 14px;&quot; face=&quot;Comic Sans MS&quot;&gt;Non-linear &lt;br&gt;Embedding&lt;/font&gt;" style="shape=parallelogram;perimeter=parallelogramPerimeter;whiteSpace=wrap;html=1;fixedSize=1;fillColor=#f9f7ed;strokeColor=#36393d;strokeWidth=2;" parent="1" vertex="1">
          <mxGeometry x="477.25" y="670" width="150" height="50" as="geometry" />
        </mxCell>
        <mxCell id="iJdwoECjG4qIQXeY6DNX-12" value="&lt;font color=&quot;#990099&quot; style=&quot;&quot;&gt;&lt;font style=&quot;font-size: 14px;&quot;&gt;Scalar answer to request&lt;/font&gt;&lt;br&gt;&lt;/font&gt;" style="rounded=1;whiteSpace=wrap;html=1;fillColor=#e1d5e7;strokeColor=#9673a6;strokeWidth=2;shadow=0;fontFamily=Comic Sans MS;" parent="1" vertex="1">
          <mxGeometry x="605" y="190" width="110" height="50" as="geometry" />
        </mxCell>
        <mxCell id="bh7ysS1SKq8o-F8AT7_F-1" value="&lt;font color=&quot;#990099&quot; style=&quot;&quot;&gt;&lt;font style=&quot;font-size: 14px;&quot;&gt;Corresponding Uncertainty&lt;/font&gt;&lt;br&gt;&lt;/font&gt;" style="rounded=1;whiteSpace=wrap;html=1;fillColor=#e1d5e7;strokeColor=#9673a6;strokeWidth=2;shadow=0;fontFamily=Comic Sans MS;" parent="1" vertex="1">
          <mxGeometry x="725" y="190" width="110" height="50" as="geometry" />
        </mxCell>
        <mxCell id="AR6ehh2gXDxMe-jYQI8W-7" value="&lt;font face=&quot;Comic Sans MS&quot; style=&quot;font-size: 14px;&quot;&gt;Highlight major &lt;br&gt;model differences between the two&lt;/font&gt;" style="rounded=1;whiteSpace=wrap;html=1;fillColor=none;strokeWidth=6;strokeColor=#FF0000;dashed=1;absoluteArcSize=0;dashPattern=1 1;" parent="1" vertex="1">
          <mxGeometry x="43.629999999999995" y="180" width="142.75" height="70" as="geometry" />
        </mxCell>
        <mxCell id="AR6ehh2gXDxMe-jYQI8W-9" value="&lt;u&gt;&lt;font style=&quot;font-size: 16px;&quot;&gt;Definition:&lt;/font&gt;&lt;/u&gt;" style="text;html=1;strokeColor=none;fillColor=none;align=center;verticalAlign=middle;whiteSpace=wrap;rounded=0;shadow=0;fontFamily=Comic Sans MS;" parent="1" vertex="1">
          <mxGeometry x="38.75" y="150" width="152.5" height="30" as="geometry" />
        </mxCell>
        <mxCell id="AR6ehh2gXDxMe-jYQI8W-12" style="edgeStyle=orthogonalEdgeStyle;rounded=0;orthogonalLoop=1;jettySize=auto;html=1;exitX=0.5;exitY=0;exitDx=0;exitDy=0;entryX=0.5;entryY=1;entryDx=0;entryDy=0;strokeWidth=2;" parent="1" source="AR6ehh2gXDxMe-jYQI8W-10" target="emGGRLrwtW1_4OUkdVJX-87" edge="1">
          <mxGeometry relative="1" as="geometry" />
        </mxCell>
        <mxCell id="AR6ehh2gXDxMe-jYQI8W-10" value="&lt;font style=&quot;font-size: 14px;&quot;&gt;Feed Forwards&lt;/font&gt;" style="rounded=1;whiteSpace=wrap;html=1;fillColor=#b1ddf0;strokeColor=#10739e;strokeWidth=2;shadow=0;fontFamily=Comic Sans MS;" parent="1" vertex="1">
          <mxGeometry x="245" y="240" width="90" height="40" as="geometry" />
        </mxCell>
        <mxCell id="AR6ehh2gXDxMe-jYQI8W-19" value="&lt;font face=&quot;Comic Sans MS&quot; style=&quot;font-size: 16px;&quot;&gt;&lt;b&gt;Embedding &lt;br&gt;Processes&lt;/b&gt;&lt;/font&gt;" style="text;html=1;strokeColor=none;fillColor=none;align=center;verticalAlign=middle;whiteSpace=wrap;rounded=0;rotation=90;" parent="1" vertex="1">
          <mxGeometry x="765" y="688" width="90" height="78" as="geometry" />
        </mxCell>
      </root>
    </mxGraphModel>
  </diagram>
</mxfile>
